<svg id="レイヤー_1" data-name="レイヤー 1" xmlns="http://www.w3.org/2000/svg" viewBox="0 0 141.51 173.72"><defs><style>.cls-1{fill:#fff;}</style></defs><title>html3_07_logo</title><path class="cls-1" d="M71,127.92a6.29,6.29,0,1,1,6.3-6.29A6.29,6.29,0,0,1,71,127.92Zm0-10.58a4.29,4.29,0,1,0,4.3,4.29A4.3,4.3,0,0,0,71,117.34Z" transform="translate(-54.25 -41.5)"/><path class="cls-1" d="M169,56.47a6.29,6.29,0,1,1,6.29-6.29A6.29,6.29,0,0,1,169,56.47Zm0-10.58a4.29,4.29,0,1,0,4.29,4.29A4.29,4.29,0,0,0,169,45.89Z" transform="translate(-54.25 -41.5)"/><path class="cls-1" d="M171.6,157a6.29,6.29,0,1,1,6.29-6.29A6.3,6.3,0,0,1,171.6,157Zm0-10.58a4.29,4.29,0,1,0,4.29,4.29A4.3,4.3,0,0,0,171.6,146.45Z" transform="translate(-54.25 -41.5)"/><circle class="cls-1" cx="61.78" cy="35.14" r="2.65"/><circle class="cls-1" cx="64.42" cy="13.97" r="2.65"/><circle class="cls-1" cx="48.54" cy="80.13" r="2.65"/><circle class="cls-1" cx="82.95" cy="103.95" r="2.65"/><circle class="cls-1" cx="75.01" cy="125.12" r="2.65"/><circle class="cls-1" cx="35.31" cy="64.25" r="2.65"/><circle class="cls-1" cx="3.55" cy="96.01" r="2.65"/><circle class="cls-1" cx="135.88" cy="93.36" r="2.65"/><circle class="cls-1" cx="101.47" cy="122.47" r="2.65"/><circle class="cls-1" cx="125.29" cy="29.85" r="2.65"/><circle class="cls-1" cx="85.59" cy="6.03" r="2.65"/><path class="cls-1" d="M81.21,98.71h0a10.56,10.56,0,0,1-7.52-3.11c-.23-.23-.45-.47-.65-.71-.21.24-.42.48-.66.71a10.62,10.62,0,0,1-15-15c.23-.23.47-.45.71-.66-.24-.2-.48-.42-.71-.65A10.63,10.63,0,0,1,67.89,61.56,10.62,10.62,0,0,1,86,53.36l.11.11A10.65,10.65,0,0,1,99.49,66.86l.11.11a10.62,10.62,0,0,1-8.2,18.11A10.62,10.62,0,0,1,81.21,98.71ZM64.88,63.13a8.63,8.63,0,0,0-6.11,14.73,8,8,0,0,0,1.53,1.21,1,1,0,0,1,0,1.71A8.31,8.31,0,0,0,58.77,82,8.63,8.63,0,1,0,71,94.19a7.91,7.91,0,0,0,1.21-1.52,1,1,0,0,1,.86-.48h0a1,1,0,0,1,.85.48A8.63,8.63,0,0,0,89,84.27a1,1,0,0,1,.11-1.06,1,1,0,0,1,1-.35,8.62,8.62,0,0,0,8.11-14.47c-.17-.17-.34-.32-.51-.47a1,1,0,0,1-.29-1.13A8.64,8.64,0,0,0,86.17,55.57a1,1,0,0,1-1.12-.27c-.18-.22-.32-.37-.47-.53A8.62,8.62,0,0,0,70.1,62.89,1,1,0,0,1,68.69,64,8.74,8.74,0,0,0,64.88,63.13Z" transform="translate(-54.25 -41.5)"/><path class="cls-1" d="M71.17,82.8a1,1,0,0,1-.71-1.71l39.3-39.29a1,1,0,1,1,1.41,1.41l-39.3,39.3A1,1,0,0,1,71.17,82.8Z" transform="translate(-54.25 -41.5)"/><path class="cls-1" d="M147.56,142.58a1,1,0,0,1-1-.76c-1.35-5.55-3.68-9.2-7-10.84a10.47,10.47,0,0,0-8.08-.27,1,1,0,0,1-.94-.09,1,1,0,0,1-.45-.83c0-5.4-1.27-8.86-3.77-10.28-4.1-2.32-10.42,1.41-10.48,1.45a1,1,0,0,1-1.49-1.08c.95-4,.49-7.53-1.37-10.41-3.56-5.49-11-7-11.12-7a1,1,0,0,1,.31-2c5.15.64,9.19-.23,12-2.58a12.38,12.38,0,0,0,4.09-8,1,1,0,0,1,1.77-.59s3.94,4.63,8.42,4.74a7.35,7.35,0,0,0,5.61-2.66,9.05,9.05,0,0,0,2.69-6.72c-.27-5.23-5.2-9.62-5.25-9.66a1,1,0,0,1-.28-1.11,1.05,1.05,0,0,1,.95-.64h.22c12.31,0,14-13.75,14.09-14.34a1,1,0,0,1,2-.11,24.71,24.71,0,0,0,3.34,7.39c3.21,4.75,7.53,7.12,12.76,7.06A1,1,0,0,1,165.3,75c-.05,0-5,4.43-5.25,9.66a9,9,0,0,0,2.69,6.72A7.36,7.36,0,0,0,168.36,94c4.5-.12,8.38-4.69,8.41-4.74a1,1,0,0,1,1.09-.3,1,1,0,0,1,.68.89,12.38,12.38,0,0,0,4.09,8c2.82,2.35,6.86,3.22,12,2.58a1,1,0,0,1,.31,2c-.07,0-7.58,1.55-11.12,7-1.85,2.88-2.31,6.37-1.37,10.4A1,1,0,0,1,181,121c-.06,0-6.38-3.77-10.47-1.45-2.5,1.42-3.77,4.88-3.77,10.28a1,1,0,0,1-.43.82,1,1,0,0,1-.93.11c-.05,0-5.24-1.91-9.92.57-3.33,1.77-5.65,5.31-6.91,10.53A1,1,0,0,1,147.56,142.58ZM135.41,128a11.35,11.35,0,0,1,5.1,1.18c3.12,1.55,5.48,4.55,7.06,8.93,1.52-4.07,3.85-7,7-8.59a14.83,14.83,0,0,1,10.22-1.06c.22-5.43,1.82-9,4.77-10.69,3.58-2,8.11-.58,10.62.53a14.24,14.24,0,0,1,2-9.91,17.39,17.39,0,0,1,6.77-5.86,14.23,14.23,0,0,1-7.6-3.11,13.87,13.87,0,0,1-4.44-7.4c-1.74,1.59-4.86,3.9-8.47,4a9.21,9.21,0,0,1-7.13-3.3,10.94,10.94,0,0,1-3.22-8.19c.21-4,2.64-7.49,4.33-9.42-8.55-1-12.81-8.11-14.64-12.48-1.36,4.41-4.84,11.49-13.26,12.48,1.69,1.93,4.13,5.39,4.33,9.42a10.9,10.9,0,0,1-3.22,8.19,9.22,9.22,0,0,1-7.13,3.3c-3.6-.09-6.73-2.4-8.46-4a13.9,13.9,0,0,1-4.45,7.4,14.23,14.23,0,0,1-7.6,3.11,17.49,17.49,0,0,1,6.78,5.86,14.29,14.29,0,0,1,2,9.91c2.51-1.11,7-2.55,10.63-.53,2.93,1.66,4.53,5.24,4.76,10.65A13.29,13.29,0,0,1,135.41,128Z" transform="translate(-54.25 -41.5)"/><path class="cls-1" d="M147.56,104.83a1,1,0,0,1-.38-.08L138,101a1,1,0,0,1-.54-1.31,1,1,0,0,1,1.3-.54l8.77,3.6,8.76-3.6a1,1,0,1,1,.76,1.85l-9.14,3.75A1,1,0,0,1,147.56,104.83Z" transform="translate(-54.25 -41.5)"/><path class="cls-1" d="M148.44,122.9a1,1,0,0,1-.55-.16l-11.21-7.46a1,1,0,0,1-.28-1.38,1,1,0,0,1,1.39-.28l10.65,7.08,10.65-7.08a1,1,0,0,1,1.39.28,1,1,0,0,1-.28,1.38L149,122.74A1,1,0,0,1,148.44,122.9Z" transform="translate(-54.25 -41.5)"/><path class="cls-1" d="M147.78,154.39a1,1,0,0,1-1-1V76.64a1,1,0,0,1,2,0v76.75A1,1,0,0,1,147.78,154.39Z" transform="translate(-54.25 -41.5)"/><path class="cls-1" d="M88.72,169.38a15.62,15.62,0,0,1-7-1.48c-5.12-2.56-7.71-8.33-7.71-17.16s2.59-14.6,7.71-17.15c14.84-7.42,45.52,15.38,46.82,16.35a1,1,0,0,1,.4.8,1,1,0,0,1-.4.8C127.41,152.38,104.54,169.38,88.72,169.38Zm0-35.29a13.68,13.68,0,0,0-6.16,1.29c-4.38,2.19-6.6,7.36-6.6,15.36s2.22,13.18,6.6,15.37c12.26,6.13,38-11.35,43.63-15.37C121.42,147.32,102,134.09,88.76,134.09Z" transform="translate(-54.25 -41.5)"/><path class="cls-1" d="M105.44,151.74h-45a1,1,0,1,1,0-2h45a1,1,0,0,1,0,2Z" transform="translate(-54.25 -41.5)"/><path class="cls-1" d="M69.86,214.93c-2.2,0-6.41.1-6.74.1-1,0-1.34-.34-1.34-1.34,0-.33.14-5.64.14-8.17V189.27c0-2.53-.14-8-.14-8.36,0-1,.29-1.2,1.39-1.2H68.8c1.1,0,1.39.19,1.39,1.2,0,.33-.14,5.83-.14,8.36v16.92c0,1.19.24,1.43,1.43,1.43h3.25c2.25,0,7.07-.1,7.41-.1,1,0,1.19.29,1.19,1.39v4.73c0,1.1-.19,1.39-1.19,1.39-.34,0-5.16-.1-7.41-.1Z" transform="translate(-54.25 -41.5)"/><path class="cls-1" d="M120.55,197c0,11.66-8.26,18.21-18,18.21-11.71,0-17.16-9.42-17.16-17.73,0-11.38,7.84-18.07,18-18.07C115.2,179.42,120.55,188.74,120.55,197Zm-26.85.53c0,4.87,2.58,10.08,9.17,10.08,5.31,0,9.37-3.82,9.37-10.08,0-4.74-2.63-10.09-9.18-10.09C97.47,187.45,93.7,191.51,93.7,197.54Z" transform="translate(-54.25 -41.5)"/><path class="cls-1" d="M153.49,211.44c0,1.15-.24,1.48-1.29,2a28.7,28.7,0,0,1-10.09,1.82c-12.85,0-18.2-7.6-18.2-17,0-12.28,8.6-18.83,19.64-18.83a21.66,21.66,0,0,1,8.55,1.72c.67.34,1,.63,1,1.06a3,3,0,0,1-.24.9l-2,5.26c-.24.67-.43,1-.76,1a2.26,2.26,0,0,1-1-.38,12.9,12.9,0,0,0-5.74-1.38c-6.54,0-11.13,4-11.13,10.65,0,6.88,4.64,9.66,10.23,9.66a10.61,10.61,0,0,0,1.81-.15c1.15-.19,1.39-.47,1.39-1.62v-.72c0-1.91-.14-5.64-.14-6,0-1,.28-1.2,1.38-1.2h5.31c1.09,0,1.38.19,1.38,1.2,0,.33-.14,4.06-.14,6Z" transform="translate(-54.25 -41.5)"/><path class="cls-1" d="M192.63,197c0,11.66-8.27,18.21-18,18.21-11.71,0-17.15-9.42-17.15-17.73,0-11.38,7.83-18.07,18-18.07C187.28,179.42,192.63,188.74,192.63,197Zm-26.86.53c0,4.87,2.58,10.08,9.18,10.08,5.3,0,9.36-3.82,9.36-10.08,0-4.74-2.62-10.09-9.17-10.09C169.55,187.45,165.77,191.51,165.77,197.54Z" transform="translate(-54.25 -41.5)"/></svg>